<svg width="50" height="50" viewBox="0 0 50 50" fill="none" xmlns="http://www.w3.org/2000/svg">
<path d="M9.32057 44.1526C9.1415 44.0944 8.96243 44.0456 8.78801 43.9805C8.30861 43.7933 7.89681 43.466 7.60638 43.0411C7.31596 42.6163 7.16043 42.1137 7.1601 41.5991C7.1601 40.3247 7.12522 39.0526 7.1601 37.7805C7.22121 35.9707 7.05479 34.1604 6.66475 32.3921C6.30894 30.7967 6.5601 29.3014 7.5601 27.9967C8.20196 27.1549 8.89499 26.3526 9.55545 25.5246C9.85696 25.181 10.1263 24.8105 10.3601 24.4177C11.3555 22.4944 12.3252 20.5642 13.2996 18.6456C13.5322 18.1805 13.8113 17.7316 14.0624 17.2735C14.1614 17.0692 14.3094 16.8927 14.4932 16.7596C14.6771 16.6265 14.891 16.541 15.1159 16.5107C16.3996 16.3456 17.6857 16.1967 18.9741 16.0735C19.4903 16.0246 20.0159 16.0735 20.5857 16.0735C20.5857 15.7409 20.5694 15.4805 20.5857 15.2223C20.6202 14.4397 20.9457 13.6982 21.4986 13.1433C22.0514 12.5883 22.7916 12.2598 23.5741 12.2223C24.5582 12.156 25.5457 12.156 26.5299 12.2223C28.2857 12.3246 29.4903 13.6642 29.5345 15.4339C29.5345 15.6177 29.5345 15.8014 29.5345 16.0432C29.7671 16.0432 29.9671 16.0432 30.1624 16.0432C31.6853 16.0349 33.2059 16.161 34.7066 16.42C35.0215 16.4656 35.3205 16.5876 35.5775 16.7753C35.8345 16.9629 36.0417 17.2106 36.181 17.4967C37.181 19.4758 38.2066 21.4502 39.2043 23.4223C39.6502 24.3571 40.2343 25.2195 40.9368 25.9805C41.4883 26.592 42.0039 27.2349 42.481 27.906C42.9679 28.5131 43.3087 29.2239 43.4773 29.9835C43.6458 30.7432 43.6375 31.5315 43.4531 32.2874C42.9601 34.4107 42.902 36.5572 42.9485 38.72C42.9671 39.6177 42.9485 40.5177 42.9485 41.4153C42.9485 42.827 42.2508 43.7409 40.8787 44.106C40.8434 44.1189 40.8098 44.1361 40.7787 44.1572H38.6857C38.6671 44.1409 38.6508 44.1177 38.6299 44.1107C37.1857 43.6735 36.5671 42.8456 36.5647 41.3456C36.5647 41.0781 36.5647 40.8107 36.5647 40.5014C32.7252 41.3247 28.8903 41.5944 25.0531 41.5967C21.1851 41.6367 17.3237 41.2704 13.5322 40.5037C13.5322 40.9688 13.5485 41.3595 13.5322 41.7572C13.5076 42.2651 13.3292 42.7535 13.0206 43.1577C12.712 43.5618 12.2878 43.8626 11.8043 44.02C11.6764 44.0619 11.5508 44.1107 11.4229 44.1572L9.32057 44.1526ZM8.46708 38.3712H8.42754C8.42754 39.4316 8.42754 40.4944 8.42754 41.5549C8.42074 41.7305 8.45019 41.9056 8.51407 42.0694C8.57795 42.2331 8.67489 42.3819 8.79884 42.5065C8.92278 42.6311 9.07107 42.7288 9.23446 42.7936C9.39785 42.8583 9.57283 42.8887 9.74847 42.8828C10.1345 42.8828 10.5206 42.8828 10.9113 42.8828C11.0896 42.8938 11.2682 42.8671 11.4355 42.8043C11.6027 42.7416 11.7549 42.6443 11.882 42.5187C12.009 42.3932 12.1082 42.2422 12.173 42.0758C12.2377 41.9093 12.2666 41.731 12.2578 41.5526C12.2578 41.0037 12.2578 40.4526 12.2578 39.9037C12.2578 39.1944 12.5624 38.9921 13.2555 39.113C15.1345 39.4386 17.0089 39.8107 18.902 40.0177C21.9194 40.3405 24.958 40.4183 27.988 40.2502C30.995 40.1037 33.9834 39.8014 36.9159 39.0874C37.4834 38.9502 37.8229 39.206 37.8345 39.7851C37.8461 40.3642 37.8345 40.9479 37.8345 41.5456C37.8256 41.721 37.8534 41.8964 37.9162 42.0604C37.9789 42.2245 38.0752 42.3737 38.1988 42.4985C38.3225 42.6232 38.4708 42.7208 38.6343 42.785C38.7979 42.8492 38.973 42.8785 39.1485 42.8712C39.5461 42.8712 39.9461 42.8712 40.3461 42.8712C40.5216 42.8757 40.6962 42.8443 40.8591 42.7787C41.0219 42.7132 41.1696 42.6149 41.2929 42.49C41.4163 42.3651 41.5127 42.2162 41.5763 42.0526C41.6399 41.889 41.6692 41.714 41.6624 41.5386C41.6624 41.113 41.6624 40.6898 41.6624 40.2642C41.6624 37.5363 41.5066 34.7991 42.181 32.1084C42.5368 30.6874 42.1299 29.42 41.2299 28.2991C40.8128 27.7383 40.3632 27.2025 39.8834 26.6944C39.2466 26.0419 38.7189 25.2913 38.3206 24.4712C38.0345 23.9177 37.7531 23.3619 37.4671 22.8084C36.6717 21.258 35.8772 19.7076 35.0834 18.1572C35.0204 18.0078 34.9169 17.879 34.7845 17.7853C34.6522 17.6916 34.4964 17.6368 34.3345 17.627C33.6648 17.5712 32.9973 17.4595 32.3275 17.4246C31.2182 17.3665 30.1066 17.3525 28.9973 17.3153C28.4624 17.2967 28.2531 17.0828 28.2438 16.5525C28.2438 16.1781 28.2438 15.8037 28.2438 15.4293C28.2089 14.306 27.4508 13.5153 26.3345 13.4781C25.4741 13.4502 24.6113 13.4502 23.7508 13.4781C23.4988 13.4802 23.2497 13.5323 23.0179 13.6313C22.7861 13.7302 22.5763 13.8742 22.4004 14.0547C22.2246 14.2353 22.0864 14.4489 21.9936 14.6833C21.9009 14.9176 21.8555 15.168 21.8601 15.42C21.8601 15.7572 21.8601 16.0944 21.8601 16.4316C21.8601 17.106 21.6717 17.2805 20.995 17.313C19.4136 17.3874 17.8322 17.4851 16.2485 17.5456C15.9391 17.539 15.6351 17.6265 15.3764 17.7963C15.1178 17.9661 14.9167 18.2103 14.7996 18.4967C13.7531 20.6347 12.6679 22.7541 11.5438 24.8549C11.1858 25.4509 10.7781 26.0157 10.3252 26.5432C9.71592 27.3316 9.06243 28.0874 8.46475 28.8898C8.16975 29.297 7.96349 29.7616 7.85934 30.2535C7.75518 30.7454 7.75544 31.2538 7.8601 31.7456C8.02754 32.7037 8.24847 33.6572 8.32522 34.6223C8.43685 35.8642 8.42754 37.113 8.46708 38.3712Z" fill="#262626"/>
<path d="M34.965 10.6758C34.8265 10.8777 34.6596 11.0586 34.4697 11.213C34.2069 11.3688 33.9441 11.2595 33.7278 11.0433C33.3325 10.6433 32.9557 10.2246 32.5325 9.85953C30.2647 7.90997 27.3258 6.922 24.3408 7.10571C21.3559 7.28942 18.5604 8.63032 16.5487 10.8433C16.1255 11.3084 15.7534 11.3991 15.4371 11.106C15.1208 10.813 15.1697 10.4642 15.5813 9.99907C18.3162 7.07814 21.6929 5.6479 25.6836 5.8293C29.2232 5.98744 32.1952 7.45721 34.5813 10.0874C34.7234 10.274 34.8516 10.4706 34.965 10.6758Z" fill="#262626"/>
<path d="M25.66 9.00374C27.9856 9.0549 30.4205 10.1665 32.3461 12.3805C32.6833 12.7689 32.6996 13.134 32.4019 13.4014C32.1042 13.6689 31.7321 13.62 31.374 13.2084C30.1603 11.7435 28.4643 10.759 26.5902 10.4316C23.567 9.90606 20.9809 10.8014 18.8716 13.0409C18.7879 13.134 18.7112 13.234 18.6251 13.3223C18.572 13.3901 18.5057 13.4465 18.4302 13.4879C18.3547 13.5294 18.2715 13.5551 18.1858 13.5635C18.1001 13.5719 18.0136 13.5629 17.9314 13.5369C17.8493 13.5109 17.7733 13.4686 17.708 13.4124C17.6427 13.3562 17.5895 13.2874 17.5515 13.2101C17.5136 13.1328 17.4917 13.0485 17.4872 12.9625C17.4827 12.8765 17.4957 12.7905 17.5254 12.7096C17.5551 12.6288 17.6009 12.5548 17.66 12.4921C18.3372 11.6588 19.1549 10.9505 20.0763 10.3991C21.6042 9.47118 23.2554 8.99676 25.66 9.00374Z" fill="#262626"/>
<path d="M25.0652 35.2038C23.5463 35.2088 22.06 34.763 20.7946 33.9229C19.5292 33.0827 18.5416 31.8859 17.9568 30.484C17.372 29.0821 17.2164 27.5383 17.5096 26.0479C17.8028 24.5575 18.5317 23.1877 19.604 22.1118C20.6762 21.036 22.0436 20.3025 23.533 20.0043C25.0224 19.7061 26.5668 19.8566 27.9706 20.4367C29.3744 21.0168 30.5745 22.0004 31.4189 23.263C32.2633 24.5256 32.7141 26.0104 32.7141 27.5294C32.7141 29.5603 31.909 31.5085 30.4753 32.947C29.0416 34.3855 27.0962 35.197 25.0652 35.2038ZM25.0466 33.9201C26.3112 33.9219 27.5479 33.5484 28.6 32.8468C29.6522 32.1452 30.4724 31.1472 30.9569 29.9791C31.4414 28.811 31.5682 27.5254 31.3215 26.2851C31.0747 25.0448 30.4654 23.9057 29.5707 23.012C28.676 22.1182 27.5362 21.5102 26.2957 21.2648C25.0551 21.0194 23.7696 21.1477 22.6021 21.6334C21.4345 22.1191 20.4373 22.9405 19.7369 23.9934C19.0365 25.0463 18.6643 26.2834 18.6676 27.548C18.6706 29.2382 19.3439 30.8582 20.5398 32.0528C21.7356 33.2473 23.3564 33.9188 25.0466 33.9201Z" fill="#262626"/>
<path d="M15.4391 34.5689C13.9135 34.4992 12.5531 34.3527 11.2693 33.8038C10.2438 33.362 9.42516 32.7108 9.15306 31.5527C9.00924 30.9543 9.05143 30.3264 9.27399 29.7527C9.36664 29.4773 9.55395 29.2436 9.80263 29.0933C10.0513 28.943 10.3452 28.8858 10.6321 28.9317C11.7205 29.062 12.8066 29.2248 13.8879 29.3434C14.4949 29.4108 15.1089 29.4294 15.7182 29.4457C15.9948 29.4393 16.2666 29.5188 16.4961 29.6733C16.7256 29.8279 16.9015 30.0498 16.9996 30.3085C17.4228 31.197 17.4974 32.2118 17.2089 33.1527C16.8996 34.1178 16.5647 34.6503 15.4391 34.5689ZM10.4949 30.2038C10.1879 31.062 10.374 31.7364 11.0624 32.2271C11.3264 32.417 11.6131 32.5733 11.9159 32.6922C13.0786 33.141 14.3135 33.2387 15.5484 33.2782C15.6204 33.265 15.6883 33.2349 15.7465 33.1904C15.8047 33.146 15.8516 33.0884 15.8833 33.0224C16.1581 32.385 16.1715 31.665 15.9205 31.0178C15.8966 30.9303 15.8434 30.8536 15.7697 30.8007C15.6961 30.7477 15.6064 30.7218 15.5159 30.7271C14.4368 30.6503 13.3554 30.5573 12.2786 30.4503C11.6856 30.3875 11.0973 30.2875 10.4949 30.2038Z" fill="#262626"/>
<path d="M34.9995 34.5503C33.6925 34.5782 33.3134 34.3178 32.9646 33.3503C32.783 32.8575 32.7014 32.3335 32.7245 31.8088C32.7477 31.2842 32.8752 30.7694 33.0995 30.2945C33.2039 30.0465 33.3778 29.834 33.6002 29.6826C33.8226 29.5312 34.084 29.4473 34.353 29.441C35.9902 29.2999 37.6258 29.134 39.26 28.9433C40.2693 28.8271 40.8879 29.3317 41.0041 30.455C41.139 31.8131 40.5879 32.8271 39.4204 33.5131C38.5213 34.007 37.5318 34.3147 36.5111 34.4177C35.9181 34.4852 35.3181 34.5224 34.9995 34.5503ZM39.5972 30.2085C39.553 30.2085 39.5041 30.2085 39.4553 30.2085C37.8088 30.3805 36.1623 30.548 34.5158 30.734C34.4497 30.751 34.3881 30.7823 34.3355 30.8257C34.2828 30.8691 34.2404 30.9235 34.2111 30.9852C33.9506 31.6409 33.9506 32.3714 34.2111 33.0271C34.2218 33.0719 34.2412 33.1142 34.2683 33.1515C34.2953 33.1888 34.3296 33.2204 34.3689 33.2444C34.4083 33.2684 34.452 33.2844 34.4976 33.2914C34.5431 33.2984 34.5896 33.2963 34.6344 33.2852C35.4018 33.2015 36.1762 33.1619 36.9367 33.0387C37.7212 32.9496 38.4686 32.6561 39.1041 32.1875C39.4052 31.9677 39.6195 31.6491 39.7096 31.2874C39.7997 30.9257 39.7599 30.5438 39.5972 30.2085Z" fill="#262626"/>
<path d="M25.0925 14.7503C25.4712 14.7586 25.8391 14.8789 26.1496 15.0959C26.4601 15.3129 26.6994 15.617 26.8373 15.9699C26.9753 16.3227 27.0057 16.7085 26.9247 17.0786C26.8437 17.4487 26.655 17.7865 26.3823 18.0495C26.1096 18.3125 25.7652 18.4888 25.3924 18.5564C25.0196 18.6239 24.6352 18.5795 24.2876 18.4289C23.94 18.2783 23.6447 18.0281 23.4391 17.7099C23.2335 17.3918 23.1266 17.0198 23.132 16.641C23.1366 16.3881 23.1909 16.1386 23.2919 15.9067C23.3929 15.6748 23.5385 15.4651 23.7206 15.2896C23.9027 15.114 24.1175 14.976 24.3529 14.8835C24.5883 14.7909 24.8396 14.7457 25.0925 14.7503ZM25.046 16.0457C24.9628 16.0444 24.8802 16.0599 24.8031 16.0913C24.7261 16.1227 24.6561 16.1693 24.5975 16.2284C24.5389 16.2875 24.4928 16.3577 24.4619 16.435C24.4311 16.5123 24.4162 16.595 24.4181 16.6782C24.4181 16.8454 24.4845 17.0057 24.6027 17.1239C24.7209 17.2421 24.8812 17.3085 25.0483 17.3085C25.2155 17.3085 25.3758 17.2421 25.494 17.1239C25.6121 17.0057 25.6785 16.8454 25.6785 16.6782C25.6801 16.5947 25.6648 16.5118 25.6336 16.4343C25.6024 16.3568 25.5558 16.2865 25.4968 16.2274C25.4377 16.1684 25.3674 16.1218 25.2899 16.0906C25.2125 16.0594 25.1295 16.0441 25.046 16.0457Z" fill="#262626"/>
<path d="M26.439 28.871C26.8506 28.3245 27.2483 27.8152 27.6227 27.2896C27.7068 27.1587 27.8246 27.0529 27.9637 26.9834C28.1029 26.9138 28.2582 26.883 28.4134 26.8943C28.9622 26.9083 29.5111 26.8943 30.0599 26.8943C30.5134 26.8943 30.7924 27.1408 30.8041 27.5129C30.8157 27.885 30.5157 28.1594 30.0529 28.171C29.6669 28.171 29.2785 28.185 28.8901 28.171C28.7879 28.1608 28.6848 28.1799 28.593 28.226C28.5012 28.2721 28.4244 28.3434 28.3715 28.4315C27.9064 29.078 27.4204 29.7129 26.9366 30.3478C26.5157 30.9013 26.0064 30.8548 25.6901 30.2292C25.0227 28.9059 24.3645 27.578 23.6692 26.192C23.2878 26.7013 22.9111 27.1594 22.5832 27.6478C22.4765 27.8311 22.3187 27.9793 22.1291 28.0743C21.9395 28.1693 21.7264 28.2069 21.5157 28.1827C21.032 28.1548 20.5436 28.1827 20.0576 28.1827C19.5715 28.1827 19.3018 27.9059 19.3018 27.5222C19.3018 27.1385 19.5878 26.9083 20.039 26.899C20.3626 26.8768 20.6874 26.8768 21.0111 26.899C21.1796 26.9232 21.3516 26.895 21.5035 26.818C21.6554 26.741 21.7798 26.619 21.8599 26.4687C22.2762 25.8641 22.7297 25.2827 23.1785 24.699C23.5878 24.1641 24.1087 24.2129 24.4064 24.8199C25.0831 26.1548 25.7483 27.492 26.439 28.871Z" fill="#262626"/>
</svg>
