<svg width="52" height="59" viewBox="0 0 52 59" fill="none" xmlns="http://www.w3.org/2000/svg">
<path d="M47.1603 6.92591C47.1603 6.30388 46.9181 5.70734 46.4869 5.2675C46.0558 4.82766 45.4711 4.58057 44.8613 4.58057H6.37121C5.76149 4.58057 5.17675 4.82766 4.74561 5.2675C4.31448 5.70734 4.07227 6.30388 4.07227 6.92591L4.11824 39.8398C4.12178 40.2358 4.22351 40.6243 4.41395 40.9693C4.60439 41.3143 4.87734 41.6045 5.20737 41.8129L24.4754 54.0526C24.8405 54.285 25.2621 54.4082 25.6924 54.4082C26.1227 54.4082 26.5444 54.285 26.9094 54.0526L46.1315 41.7191C46.4605 41.5079 46.7317 41.2151 46.9196 40.868C47.1076 40.5209 47.2062 40.1308 47.2063 39.7343L47.1603 6.92591ZM31.7085 44.6888C31.4285 44.8686 31.1064 44.9685 30.7757 44.9781C30.445 44.9878 30.1178 44.9068 29.8282 44.7437C29.5386 44.5805 29.2972 44.3412 29.129 44.0505C28.9609 43.7599 28.8722 43.4286 28.8722 43.0911V40.004C28.8729 39.6861 28.9522 39.3735 29.1029 39.0952C29.2536 38.8169 29.4708 38.5819 29.7343 38.4121L34.4845 35.3632C34.7487 35.1935 34.9664 34.9582 35.1172 34.6792C35.268 34.4003 35.3469 34.0869 35.3466 33.7683L35.3293 20.2826C35.3293 20.2181 35.3293 20.1566 35.3293 20.095V20.0129C35.3307 19.9865 35.3307 19.9601 35.3293 19.9338C35.2593 19.5472 35.0717 19.1931 34.7931 18.9215C34.5145 18.65 34.1592 18.4748 33.7775 18.421H33.6971H33.608H30.7199C30.2313 18.4218 29.7628 18.6193 29.4162 18.9707C29.0696 19.3221 28.8731 19.7988 28.8693 20.2973V20.3119V30.3852C28.8686 30.7031 28.7892 31.0157 28.6385 31.294C28.4878 31.5723 28.2706 31.8073 28.0072 31.9771L26.6278 32.8566C26.3333 33.0449 25.9926 33.1448 25.645 33.1448C25.2974 33.1448 24.9568 33.0449 24.6622 32.8566L23.2828 31.9771C23.0179 31.807 22.7994 31.5714 22.6476 31.292C22.4959 31.0127 22.4159 30.6987 22.415 30.3793V20.2914C22.415 19.7907 22.22 19.3105 21.8729 18.9564C21.5259 18.6023 21.0552 18.4034 20.5643 18.4034H17.7884C17.2975 18.4034 16.8268 18.6023 16.4798 18.9564C16.1327 19.3105 15.9377 19.7907 15.9377 20.2914L15.9578 33.8065C15.9571 34.1259 16.0357 34.4403 16.1865 34.7202C16.3373 35.0002 16.5552 35.2365 16.8199 35.4072L21.5242 38.3975C21.788 38.5669 22.0054 38.8018 22.1562 39.0801C22.3069 39.3585 22.3861 39.6713 22.3863 39.9894V43.0852C22.3847 43.4214 22.2952 43.7512 22.1272 44.0404C21.9591 44.3296 21.7185 44.5679 21.4301 44.7307C21.1417 44.8934 20.816 44.9748 20.4865 44.9664C20.1571 44.9581 19.8357 44.8602 19.5557 44.683L9.50353 38.2949L9.46617 10.8749H22.9409L25.6479 13.1674L28.2716 10.8749H41.7779L41.8181 38.2157L31.7085 44.6888Z" fill="#E52727"/>
</svg>
